<?xml version="1.0" encoding="utf-8"?>
<?xml-stylesheet type="text/xsl" href="rss1.xsl"?>
<rss version="2.0" xmlns:atom="http://www.w3.org/2005/Atom" xmlns:content="http://purl.org/rss/1.0/modules/content/" xmlns:dc="http://purl.org/dc/elements/1.1/" xmlns:media="http://search.yahoo.com/mrss/">
<channel>
 <title>Getty</title>
 <link>http://www.gettyimg.com/</link>
 <atom:link href="http://www.gettyimg.com/" rel="self" type="application/rss+xml" />

 
                <item>
                <title><![CDATA[【PRORES HD】Conan Gray - Comfort Crowd [Master ProRes 1080p] - 2019]]></title>
                <link><![CDATA[https://sharemania.us/threads/conan-gray-comfort-crowd-master-prores-1080p-2019.221793/]]></link>
                <description><![CDATA[<article>
<blockquote class="messageText SelectQuoteContainer ugc baseHtml">
<div style="text-align: center"><img src="https://i.ibb.co/MBy42zV/Conan-Gray-Comfort-Crowd-Master-Pro-Res-1080p-mov.png" class="bbCodeImage LbImage" alt="[​IMG]" data-url="https://i.ibb.co/MBy42zV/Conan-Gray-Comfort-Crowd-Master-Pro-Res-1080p-mov.png" style=""> <br>
<br>
<div class="ToggleTriggerAnchor bbCodeSpoilerContainer">
<button type="button" class="button bbCodeSpoilerButton ToggleTrigger Tooltip JsOnly" data-target="> .SpoilerTarget"><span>Spoiler: <span class="SpoilerTitle">Mediainfo</span></span></button>
<div class="SpoilerTarget bbCodeSpoilerText"><b>General</b><br>
Complete name : Conan Gray - Comfort Crowd [Master ProRes 1080p].mov<br>
Format : MPEG-4<br>
Format profile : QuickTime<br>
Codec ID : qt 2005.03 (qt )<br>
File size : 3.91 GiB<br>
Duration : 3 min 13 s<br>
Overall bit rate mode : Variable<br>
Overall bit rate : 174 Mb/s<br>
Frame rate : 23.976 FPS<br>
Encoded date : 2019-09-07 19:25:02 UTC<br>
Tagged date : 2019-09-07 19:27:29 UTC<br>
Writing library : Apple QuickTime<br>
TIM : 00:00:00:00<br>
TSC : 24000<br>
TSZ : 1001<br>
<br>
<b>Video</b><br>
ID : 1<br>
Format : ProRes<br>
Format version : Version 0<br>
Format profile : 422 HQ<br>
Codec ID : apch<br>
Duration : 3 min 13 s<br>
Bit rate mode : Variable<br>
Bit rate : 172 Mb/s<br>
Width : 2 048 pixels<br>
Height : 858 pixels<br>
Display aspect ratio : 2.40:1<br>
Frame rate mode : Constant<br>
Frame rate : 23.976 (24000/1001) FPS<br>
Color space : YUV<br>
Chroma subsampling : 4:2:2<br>
Scan type : Progressive<br>
Bits/(Pixel*Frame) : 4.084<br>
Stream size : 3.87 GiB (99%)<br>
Writing library : Apple<br>
Language : English<br>
Encoded date : 2019-09-07 19:25:02 UTC<br>
Tagged date : 2019-09-07 19:25:02 UTC<br>
Color primaries : BT.709<br>
Transfer characteristics : BT.709<br>
Matrix coefficients : BT.709<br>
<br>
<b>Audio</b><br>
ID : 2<br>
Format : PCM<br>
Format settings : Little / Signed<br>
Codec ID : sowt<br>
Duration : 3 min 13 s<br>
Bit rate mode : Constant<br>
Bit rate : 1 536 kb/s<br>
Channel(s) : 2 channels<br>
Channel layout : L R<br>
Sampling rate : 48.0 kHz<br>
Bit depth : 16 bits<br>
Stream size : 35.4 MiB (1%)<br>
Language : English<br>
Encoded date : 2019-09-07 19:25:02 UTC<br>
Tagged date : 2019-09-07 19:25:02 UTC<br>
<br>
<b>Other</b><br>
ID : 3<br>
Type : Time code<br>
Format : QuickTime TC<br>
Duration : 3 min 13 s<br>
Frame rate : 23.976 (24000/1001) FPS<br>
Time code of first frame : 00:00:00:00<br>
Time code of last frame : 00:03:12:23<br>
Time code, stripped : Yes<br>
Language : English<br>
Encoded date : 2019-09-07 19:25:02 UTC<br>
Tagged date : 2019-09-07 19:25:02 UTC</div>
</div><br>
<div class="bbCodeBlock bbCodeVfcHH HiddenContent">
<div class="attribution type">Hidden Content:</div>
<blockquote>You must reply before you can see the hidden data contained here.</blockquote>
</div></div>
<div class="messageTextEndMarker">&nbsp;</div>
</blockquote>
</article>]]></description>
                <author><![CDATA[von_3649]]></author>
                </item>

                
                <item>
                <title><![CDATA[【Singles (lossless)】FLAC - SECRET NUMBER - DOXA (FLAC 24bits/96kHz)]]></title>
                <link><![CDATA[https://sharemania.us/threads/secret-number-doxa-flac-24bits-96khz.221794/]]></link>
                <description><![CDATA[<article>
<blockquote class="messageText SelectQuoteContainer ugc baseHtml">
<img src="https://images2.imgbox.com/33/01/ZOZ98gtL_o.jpg" class="bbCodeImage LbImage" alt="[​IMG]" data-url="https://images2.imgbox.com/33/01/ZOZ98gtL_o.jpg" style=""><br>
<br>
"<b>Doxa</b>" is the sixth single album by <a href="https://kpop.fandom.com/wiki/SECRET_NUMBER" target="_blank" class="externalLink" rel="nofollow">SECRET NUMBER</a>. It was released on May 24, 2023 with "Doxa" serving as the single's title track.<br>
<br>
<div data-s9e-mediaembed="youtube" style="display:inline-block;width:100%;max-width:640px"><div style="overflow:hidden;position:relative;padding-bottom:56.25%"><iframe allowfullscreen="" scrolling="no" style="background:url(https://i.ytimg.com/vi/6Tr5wV1opKw/hqdefault.jpg) 50% 50% / cover;border:0;height:100%;left:0;position:absolute;width:100%" src="https://www.youtube.com/embed/6Tr5wV1opKw"></iframe></div></div><br>
<br>
<span style="font-size: 18px"><b>Track list</b></span><br>
<ol>
<li>"Doxa (독사)" - 3:05</li>
<li>"Beautiful One" - 3:09</li>
</ol>
<div class="bbCodeBlock bbCodeVfcHH HiddenContent">
<div class="attribution type">Hidden Content:</div>
<blockquote>You must either reply or click 'Like' to see the hidden information contained here.</blockquote>
</div>
<div class="messageTextEndMarker">&nbsp;</div>
</blockquote>
</article>]]></description>
                <author><![CDATA[Eric Lyn]]></author>
                </item>

                
                <item>
                <title><![CDATA[【Requests】[REQ VID] - Ted Lasso (Apple TV+) Bonus: Richmond Till We Die]]></title>
                <link><![CDATA[https://sharemania.us/threads/ted-lasso-apple-tv-bonus-richmond-till-we-die.221795/]]></link>
                <description><![CDATA[<article>
<blockquote class="messageText SelectQuoteContainer ugc baseHtml">
If anyone has it or knows how to download anything off of the Apple TV+ app (not a screen recording), I would be so grateful!<br>
<br>
Thumbnail: <iframe data-s9e-mediaembed="instagram" allowfullscreen="" onload="var a=Math.random();window.addEventListener('message',function(b){if(b.data.id==a)style.height=b.data.height+'px'});contentWindow.postMessage('s9e:'+a,'https://s9e.github.io')" scrolling="no" src="https://s9e.github.io/iframe/instagram.min.html#Cs5VY7Lui-O" style="border: 0px; height: 949px; max-width: 640px; width: 100%;"></iframe>
<div class="messageTextEndMarker">&nbsp;</div>
</blockquote>
</article>]]></description>
                <author><![CDATA[musique.pop]]></author>
                </item>

                </channel></rss>